# xmcd
#
# Track frame offsets:
#	150
#	13989
#	25755
#	37784
#	49813
#	68705
#	78400
#	92276
#	104534
#	121397
#
# Disc length: 1807 seconds
#
# Revision: 0
# Processed by: cddbd v1.5.1PL0 Copyright (c) Steve Scherf et al.
# Submitted via: dBpowerAMP V4.0
#
DISCID=73070d0a
DTITLE=Johnny Cash - Giant Hits
DYEAR=1995
DGENRE=Country
TTITLE0=Don't Take Your Love To Town
TTITLE1=I Walk The Line
TTITLE2=I Still Miss Someone
TTITLE3=Ring Of Fire
TTITLE4=Sunday Morning Coming Down
TTITLE5=What Do I Care
TTITLE6=It Ain't Me, Baby
TTITLE7=I'm So Lonesome I Could Cry
TTITLE8=The City Of New Orleans
TTITLE9=Orange Blossom Special
EXTD=cd release date was October 1, 1995 label is Sony Special Product 
EXTT0=
EXTT1=
EXTT2=
EXTT3=
EXTT4=
EXTT5=
EXTT6=
EXTT7=
EXTT8=
EXTT9=
PLAYORDER=
